<?xml version="1.0" encoding="UTF-8"?>
<svg width="37px" height="37px" viewBox="0 0 37 37" version="1.1" xmlns="http://www.w3.org/2000/svg" xmlns:xlink="http://www.w3.org/1999/xlink">
    <!-- Generator: Sketch 48.2 (47327) - http://www.bohemiancoding.com/sketch -->
    <title>smi-twitter</title>
    <desc>Created with Sketch.</desc>
    <defs></defs>
    <g id="Assets" stroke="none" stroke-width="1" fill="none" fill-rule="evenodd">
        <g id="2909" transform="translate(-38.000000, -37.000000)">
            <g id="smi-twitter" transform="translate(38.000000, 37.000000)">
                <path d="M36.358,18.602 C36.358,28.605 28.25,36.713 18.247,36.713 C8.244,36.713 0.135,28.605 0.135,18.602 C0.135,8.599 8.244,0.49 18.247,0.49 C28.25,0.49 36.358,8.599 36.358,18.602" id="Fill-5" fill="#40BDE1"></path>
                <path d="M15.553,22.275 C13.847,22.216 12.78,20.992 12.498,19.997 C12.973,20.087 13.44,20.069 13.905,19.955 L13.953,19.933 C13.029,19.718 12.315,19.224 11.82,18.427 C11.492,17.898 11.334,17.318 11.339,16.681 C11.801,16.928 12.283,17.066 12.8,17.079 C12.105,16.579 11.64,15.924 11.449,15.087 C11.26,14.253 11.382,13.458 11.801,12.71 C13.579,14.803 15.829,15.951 18.572,16.14 C18.553,16.01 18.533,15.896 18.52,15.781 C18.428,15.009 18.582,14.288 19,13.634 C19.521,12.816 20.268,12.306 21.226,12.15 C22.33,11.969 23.293,12.284 24.1,13.066 L24.274,13.118 C24.949,12.971 25.585,12.728 26.184,12.383 L26.228,12.361 L26.25,12.359 C25.99,13.123 25.517,13.711 24.844,14.146 C25.479,14.076 26.086,13.907 26.672,13.654 L26.685,13.669 C26.56,13.833 26.438,14.001 26.308,14.161 C25.959,14.59 25.56,14.968 25.114,15.295 L25.06,15.398 C25.078,15.885 25.059,16.372 24.999,16.856 C24.873,17.876 24.588,18.849 24.153,19.779 C23.703,20.738 23.117,21.605 22.378,22.367 C21.128,23.66 19.621,24.494 17.867,24.881 C17.265,25.013 16.654,25.081 16.038,25.098 C14.145,25.154 12.395,24.683 10.785,23.689 L10.707,23.638 C11.854,23.762 12.943,23.615 13.992,23.186 C14.548,22.958 15.064,22.658 15.553,22.275" id="Fill-6" fill="#FFFFFE"></path>
            </g>
        </g>
    </g>
</svg>