<?xml version="1.0" encoding="UTF-8"?>
<svg width="37px" height="37px" viewBox="0 0 37 37" version="1.1" xmlns="http://www.w3.org/2000/svg" xmlns:xlink="http://www.w3.org/1999/xlink">
    <!-- Generator: Sketch 48.2 (47327) - http://www.bohemiancoding.com/sketch -->
    <title>smi-facebook</title>
    <desc>Created with Sketch.</desc>
    <defs></defs>
    <g id="Assets" stroke="none" stroke-width="1" fill="none" fill-rule="evenodd">
        <g id="2909" transform="translate(0.000000, -37.000000)">
            <g id="smi-facebook" transform="translate(0.000000, 37.000000)">
                <path d="M36.622,18.602 C36.622,28.605 28.513,36.713 18.51,36.713 C8.507,36.713 0.398,28.605 0.398,18.602 C0.398,8.599 8.507,0.49 18.51,0.49 C28.513,0.49 36.622,8.599 36.622,18.602" id="Fill-3" fill="#4D6CA6"></path>
                <path d="M20.937,13.453 C21.422,13.437 21.906,13.449 22.392,13.449 L22.591,13.449 L22.591,10.929 C22.332,10.903 22.062,10.866 21.791,10.853 C21.294,10.831 20.797,10.806 20.299,10.817 C19.54,10.833 18.822,11.019 18.194,11.468 C17.475,11.986 17.08,12.713 16.929,13.572 C16.867,13.926 16.851,14.293 16.841,14.653 C16.828,15.218 16.839,15.783 16.839,16.349 L16.839,16.561 L14.429,16.561 L14.429,19.375 L16.825,19.375 L16.825,26.449 L19.754,26.449 L19.754,19.387 L22.143,19.387 C22.266,18.451 22.385,17.524 22.511,16.559 C22.319,16.559 22.146,16.559 21.974,16.559 C21.294,16.562 19.735,16.559 19.735,16.559 C19.735,16.559 19.742,15.165 19.758,14.559 C19.782,13.73 20.273,13.477 20.937,13.453" id="Fill-4" fill="#FFFFFE"></path>
            </g>
        </g>
    </g>
</svg>