<svg id="Ebene_1" xmlns="http://www.w3.org/2000/svg" viewBox="0 0 2000 1400"><style>.st0{fill:#8DC655;}</style><path class="st0" d="M217.7 540.5v111.2h42.8V701h-42.8v180.7c0 12 1.7 20.3 5 25.2 3.5 4.8 11.4 7.2 23.7 7.2 6.4 0 11.7-.4 16-1.3v53.6c-16.2 3-29.6 4.5-40.3 4.5-51 0-76.6-20.6-76.6-62V701H107v-49.2h38.4v-111h72.3zM366.6 540.5v70.3h-72.2v-70.3h72.2zm0 111v315h-72.2v-315h72.2zM413.8 1073.3V651.6H486V679c16.2-21.2 36-31.8 59.4-31.8 26.4 0 46 10 58.8 30 6.4 9.8 9.6 26.8 9.6 51V890c0 31.4-7 52.8-20.8 64-13.8 11.4-29.7 17-47.6 17-23 0-42.8-10.6-59.4-32v134.3h-72.2zM486 736.6v145c0 21.3 9.4 32 28 32 18.4 0 27.6-10.7 27.6-32v-145c0-21.3-9.2-32-27.5-32-18.6 0-28 10.7-28 32zM659.2 1073.3V651.6h72.2V679c16.2-21.2 36-31.8 59.4-31.8 26.4 0 46 10 58.8 30 6.4 9.8 9.6 26.8 9.6 51V890c0 31.4-7 52.8-20.8 64-13.8 11.4-29.7 17-47.6 17-23 0-42.8-10.6-59.4-32v134.3h-72.2zm72.2-336.7v145c0 21.3 9.4 32 28 32 18.4 0 27.6-10.7 27.6-32v-145c0-21.3-9.2-32-27.5-32-18.8 0-28 10.7-28 32z"/><path d="M903.8 651.6h72.8V674c17.5-18 37-26.8 58.8-26.8 23 0 43 10.2 60 30.7 18-20.5 39.3-30.8 64-30.8 26.8 0 47 8.7 60 26.2 8.2 10.6 12.2 28.7 12.2 54.3v239h-72.2v-230c0-21.4-9.4-32-28-32-18.4 0-27.6 10.6-27.6 32v230h-72.2v-230c0-21.4-9.2-32-27.5-32-18.7 0-28 10.6-28 32v230h-72.2v-315zM1346.6 753.2h-68.4v-43.4c0-21 8.3-36.2 25-46 18.2-11 42.5-16.6 72.7-16.6 34.4 0 59.7 8 76 24.3 11.8 12 17.8 31.3 17.8 58v193c0 19.6 4.2 34.3 12.8 44H1406c-4.7-5.4-7.7-13-9-23-17.8 18.4-38.2 27.6-61.2 27.6-21.3 0-37.5-6.7-48.6-20.3-9-11-13.4-30-13.4-57v-31.2c0-20.4 3.7-35.6 11.2-45.4 7.4-9.7 23.3-20.6 47.6-32.5l64.5-31.3v-29.4c0-15.8-8.2-23.6-24.8-23.6-17 0-25.6 8-25.6 23.6v29.4zM1397 812l-28 16c-15 8.5-22.4 22.2-22.4 41v19.7c0 19.2 6.4 28.8 19.2 28.8 10.2 0 19.2-3.8 26.8-11.5 3-3 4.5-8.7 4.5-17.2V812zM1613.6 540.5v111.2h42.8V701h-42.8v180.7c0 12 1.7 20.3 5 25.2 3.5 4.8 11.4 7.2 23.7 7.2 6.4 0 11.7-.4 16-1.3v53.6c-16.2 3-29.6 4.5-40.2 4.5-51 0-76.6-20.6-76.6-62V701H1503v-49.2h38.4v-111h72.2zM1820.6 860.5h72.2v28.7c0 25-9 45-27 59.7-18.2 14.6-42.6 22-73.3 22-30.7 0-55-7.4-72.8-22-18-14.8-26.8-34.7-26.8-59.8V729c0-25.2 8.8-45 26.7-59.8 18-14.7 42.4-22 73.5-22 30.7 0 55 7.3 72.8 22 18 14.7 26.8 34.6 26.8 59.7v95H1765v70.4c0 15.8 9.4 23.6 28 23.6 18.4 0 27.6-8 27.6-23.6v-34zm0-85.6v-50.6c0-16.2-9.4-24.3-28-24.3-18.4 0-27.6 8.2-27.6 24.4V775h55.6zM417.6 610.4v-90.2c0-5 .7-10 2-14.7 3.4-14.4 12-28 24.5-39 17.7-15.7 42.2-26 69.3-28.8 5.5-.5 10.8-.8 15.8-.8 8 0 15.4.4 22.3 1.5 28.8 4.3 54.7 17.4 71 36 8 9 13.4 19 16.2 30 1.4 5 2 10.2 2 15.5v90.4h-223zM868 610.4v-90.2c0-5 .8-10 2-14.7 3.5-14.5 12-28 24.6-39 17.6-15.7 42.2-26 69.2-28.8 5.5-.5 10.8-.8 15.8-.8 7.8 0 15.3.4 22.2 1.5 28.8 4.3 54.7 17.4 71 36 8 9 13.4 19 16.2 30 1.4 5.2 2 10.3 2 15.5v90.4H868z"/><path class="st0" d="M1090.4 428c-2.7 10.2-15 22.4-26.2 22.4-2.5 0-4.7-.6-6.8-1.7-24.3-14.2-50.3-21.3-77.5-21.3-68.4 0-120.5 44.5-121.5 84.2v99h-209v-99c-1-39.7-53.2-84.2-121.5-84.2-27 0-53.2 7.2-77.5 21.3-2 1.2-4.3 1.7-6.7 1.7-11.2 0-23.5-12.2-26.2-22.3-6.3-23.5 7.6-41.4 43.8-56.3l1.4-.6c1.6 3 3.3 5.5 5.2 8 4.8 6.5 10.6 12.2 17.2 17l3 2h.2c12.8 8 27.6 12.4 43 12.4 16.5 0 32.4-5 45.7-14.4 8.2-5.7 15-12.7 20.2-20.8 2-3 4-6.3 5.4-9.7l1 .2C635 372 666.4 381.5 697 394c7.2-3 15.3-5.4 24-7.2l2.8-.5 2.5 1c8.5 3.8 18.2 5.8 28 6 9.3 0 18.5-2.2 27.2-6l2.5-1 2.7.5c8.8 1.8 17 4.2 24.2 7 30.4-12.3 61.8-21.8 93.2-28h.4c2.2 4.6 5 9 8 13.2 4.8 6.4 10.6 12 17.2 17l3 2c13 8 27.7 12.3 43 12.3 16.6 0 32.5-5 45.8-14.4 8-5.8 14.8-12.8 20-21 1-1.4 2-2.8 2.8-4.3l2 .8c36.4 15 50.3 33 44 56.6z"/><path d="M531.2 401.4c-14 0-27.8-4-39.5-12l-.7-.4-.5-.3c-6-4.2-11-9.2-15.2-15-8.6-11.4-13.2-25-13.2-39.4 0-37 31-67 69.2-67 38 0 69.2 30 69.2 67 0 13-3.7 25.4-10.8 36-4.6 7.2-10.6 13.4-17.8 18.4-11.8 8.3-25.8 12.7-40.6 12.7zM976 401.4c-14 0-27.8-4-39.5-12l-.7-.4-.5-.3c-6-4.2-11-9.2-15.2-15-8.5-11.4-13-25-13-39.4 0-37 31-67 69-67s69.2 30 69.2 67c0 13-3.7 25.4-10.8 36-4.7 7.2-10.6 13.4-17.8 18.5-11.8 8.2-25.8 12.6-40.6 12.6z"/><path class="st0" d="M754.8 383.7c-36.8 0-66.7-29-66.7-64.8s30-65 66.8-65 66.7 29.2 66.7 65c0 35.6-30 64.7-66.7 64.7z"/></svg>